#!OML:ASF F:\VICON\USERDATA\INSTALL\rory3\rory3.ASF
:FULLY-SPECIFIED
:DEGREES
73
root 0.6029470289830988 18.68868738850687 11.180051979483194 6.5120177470329965 -7.844023598884083 -2.0407355740311117
lfemur 15.625029234334942 -6.327598826073171 -27.416027917387837
ltibia 23.481274327933324
lfoot 33.43311202598764 -16.931923949761664
ltoes -22.027596855206898
rfemur -41.81698751069882 1.3197390745604936 24.76694627126618
rtibia 35.39065892928443
rfoot 4.656593871883918 -1.7465074198047903
rtoes -12.511946983005501
lowerback nan -1.377851391677675 -0.9344387204609577
upperback -1.155614695879311 -0.7665213728430091 0.6564688140671433
thorax -8.354344463433325 -0.35728368539068145 2.820135491149301
lowerneck -20.08166670298948 -2.499079261589518 -2.764621386596386
upperneck 10.749645988815136 -2.518349281344034 3.4415207229472022
head 6.5682135525390635 -0.8984467565427421 1.5130959126446148
lclavicle -1.7854296048617558e-14 -2.7874563900751113e-14
lhumerus -46.26247146600105 -1.9933131402005317 81.22529370074396
lradius 125.80587157993853
lwrist 36.612025084781074
lhand -25.69211697281814 2.9970561648095115
lfingers nan
lthumb 1.0905533838547532 33.002315385581895
rclavicle -1.7026311873699127e-14 -2.939738781983368e-14
rhumerus -67.69749000282947 -0.8448970418634776 -88.51966892071853
rradius 111.18489334370811
rwrist -22.653590689886514
rhand -20.004539819767672 nan
rfingers nan
rthumb 6.157591944683031 10.500394268087948
74
root 0.6245462333761153 18.71125414852266 11.577619302509197 6.458645536823807 -7.654108204925634 -1.7855974585646655
lfemur 15.876263084744064 -6.736664371841629 -27.776032251693177
ltibia 24.116115120820677
lfoot 35.755515482435214 -16.343538149877105
ltoes -13.501455077847769
rfemur -41.01798321785959 0.983711444868447 24.723538249503314
rtibia 30.582180202562885
rfoot 4.563967756671981 -1.922292224731005
rtoes -12.163341874307878
lowerback nan -1.447440912150456 -0.9886965866741222
upperback -1.11350371891535 -0.801888324057255 0.5531633590211877
thorax -8.219689376876785 -0.4187150867261301 2.843304142405723
lowerneck -20.017863973327938 -2.4625480262606763 -2.769681879872926
upperneck 10.850640462627448 -2.4338930858256482 3.4004209244939374
head 6.571516925962461 -0.8971879084498493 1.4987535807019472
lclavicle -1.911560343436789e-14 7.07801278987142e-16
lhumerus -46.46372924743808 -1.9569735401943502 81.3758315014619
lradius 125.76443523336093
lwrist 36.76015183581419
lhand -24.75936126868523 4.209094941969912
lfingers nan
lthumb 2.032123901653303 34.23423780763073
rclavicle -1.790243091894768e-14 -4.917486415284906e-16
rhumerus -67.46798194368002 -1.0381554276873732 -88.57193223975956
rradius 111.40881086260676
rwrist -21.97435577758826
rhand -20.21556664350078 nan
rfingers nan
rthumb 5.943295041121798 11.250883359802188
75
root 0.6372676657747101 18.721626533406326 11.933837637935078 6.280711830085757 -7.108060372190092 -1.4102389676923899
lfemur 16.32299676038608 -7.037367431018438 -28.15891804065615
ltibia 25.27790874509332
lfoot 34.7547352286299 -19.92573587086723
ltoes -17.03994457373397
rfemur -40.097318764600644 0.30994138937227067 24.616450341886583
rtibia 26.301181205586538
rfoot 3.3340003122310193 -2.5583909824076856
rtoes -11.336788351946371
lowerback nan -1.566781905177042 -1.0968088825459508
upperback -1.0275689008318873 -0.9009800427756518 0.41648352659221866
thorax -8.125503764552615 -0.5260484937499922 2.891180417203815
lowerneck -20.08836044680199 -2.4511254238297493 -2.7404168621515606
upperneck 11.09985602711475 -2.40729649828299 3.24798225498475
head 6.638279819626768 -0.9024834339138201 1.4534562219268388
lclavicle -1.878716650497905e-14 -9.412422618752439e-15
lhumerus -46.700557897134956 -1.8819333650197505 81.49797583997879
lradius 125.78335435586668
lwrist 36.75233830481168
lhand -24.56711481611279 5.106003413593734
lfingers nan
lthumb 2.2516679501237853 35.162226139587915
rclavicle -1.742597343371544e-14 -1.0633141183352978e-14
rhumerus -67.22704996078275 -1.1979864955856208 -88.71922862117408
rradius 111.74335060494035
rwrist -21.129171088200025
rhand -20.26456125918824 nan
rfingers nan
rthumb 5.882333819601064 11.556921292716147
76
root 0.6458848330236822 18.72710609111741 12.28271642801376 6.068534194131564 -7.104935409501735 -1.1475349901130665
lfemur 16.522604957561544 -7.200160684644716 -28.599598371670695
ltibia 27.111102253171456
lfoot 32.20297509958391 -23.544820565643622
ltoes -24.222810144900343
rfemur -39.19508862865456 -0.37675223241823863 24.80558008621648
rtibia 22.55663945331485
rfoot 4.264453331523059 -2.0569254273243303
rtoes -13.98812962017735
lowerback nan -1.5781090401147844 -1.2279102357990337
upperback -0.797694021688655 -0.85251165367959 0.2634445798840783
thorax -7.611395923537964 -0.5714592743721197 2.9220630189969445
lowerneck -20.135645963435756 -2.46110891373717 -2.6866541372906054
upperneck 10.943501433782252 -2.3695941397714164 3.1501851415538216
head 6.57565968055422 -0.9196647481136957 1.4140584961345462
lclavicle 7.504488845624112e-16 -3.079507501894176e-14
lhumerus -46.91512688918381 -1.8089365788605267 81.62293632806603
lradius 125.68804638018676
lwrist 36.47464438326646
lhand -24.59102408874267 5.78707597695408
lfingers nan
lthumb 2.2623871201154317 35.87607050855763
rclavicle 2.298314968462151e-15 -3.17954464044363e-14
rhumerus -66.90409750694457 -1.363777511757009 -88.96064658821811
rradius 112.23690466754364
rwrist -20.220527519822074
rhand -20.28797058981608 nan
rfingers nan
rthumb 5.850730892131844 11.74834643920321
